<svg xmlns="http://www.w3.org/2000/svg" xmlns:xlink="http://www.w3.org/1999/xlink" width="200" zoomAndPan="magnify" viewBox="0 0 150 52.499999" height="70" preserveAspectRatio="xMidYMid meet" version="1.0"><defs><g/><clipPath id="7128d231ab"><path d="M 17 5.199219 L 25 5.199219 L 25 22 L 17 22 Z M 17 5.199219 " clip-rule="nonzero"/></clipPath><clipPath id="99cb8e695d"><path d="M 12.007812 39 L 36 39 L 36 45.320312 L 12.007812 45.320312 Z M 12.007812 39 " clip-rule="nonzero"/></clipPath><clipPath id="57e87cba33"><path d="M 19 5.199219 L 29 5.199219 L 29 28 L 19 28 Z M 19 5.199219 " clip-rule="nonzero"/></clipPath><clipPath id="e0ba8c6620"><path d="M 13 23 L 40.238281 23 L 40.238281 42 L 13 42 Z M 13 23 " clip-rule="nonzero"/></clipPath></defs><g clip-path="url(#7128d231ab)"><path fill="#8c5920" d="M 22.367188 5.816406 C 22.738281 6.058594 23.125 6.34375 23.4375 6.667969 C 23.761719 7 24.027344 7.378906 24.242188 7.789062 C 24.449219 8.179688 24.609375 8.613281 24.667969 9.050781 C 24.859375 10.492188 24.105469 11.878906 23.265625 12.984375 C 22.699219 13.722656 22.027344 14.386719 21.425781 15.101562 C 20.777344 15.867188 20.15625 16.675781 19.6875 17.566406 C 19.242188 18.417969 18.929688 19.359375 18.859375 20.324219 C 18.839844 20.609375 18.855469 20.894531 18.84375 21.179688 C 18.84375 21.179688 17.6875 19.664062 17.6875 17.53125 C 17.78125 15.628906 18.949219 14.09375 20.351562 12.914062 C 20.921875 12.433594 21.535156 12.003906 22.085938 11.503906 C 22.945312 10.714844 23.585938 9.699219 23.632812 8.507812 C 23.671875 7.421875 23.070312 6.574219 22.367188 5.816406 Z M 22.367188 5.816406 " fill-opacity="1" fill-rule="nonzero"/></g><path fill="#8c5920" d="M 29.484375 10.949219 C 29.9375 11.519531 30.3125 12.191406 30.566406 12.875 C 30.96875 13.960938 31.066406 15.136719 30.867188 16.28125 C 30.539062 18.125 29.4375 19.636719 28.066406 20.859375 C 27.097656 21.714844 26.027344 22.484375 25.179688 23.472656 C 24.746094 23.96875 24.378906 24.550781 24.105469 25.148438 C 24.058594 25.257812 24.011719 25.363281 23.972656 25.476562 C 23.929688 25.585938 23.890625 25.699219 23.859375 25.808594 C 23.824219 25.921875 23.792969 26.035156 23.769531 26.148438 C 23.742188 26.257812 23.722656 26.371094 23.703125 26.488281 C 23.683594 26.601562 23.675781 26.71875 23.667969 26.832031 C 23.65625 26.945312 23.65625 27.0625 23.65625 27.179688 C 23.65625 27.296875 23.667969 27.40625 23.675781 27.523438 C 23.691406 27.640625 23.703125 27.753906 23.726562 27.867188 C 23.75 27.984375 23.777344 28.097656 23.8125 28.207031 C 23.824219 28.25 23.839844 28.296875 23.855469 28.339844 C 23.871094 28.386719 23.886719 28.4375 23.910156 28.484375 C 23.910156 28.488281 23.917969 28.507812 23.925781 28.511719 C 23.835938 28.476562 23.691406 28.390625 23.625 28.34375 C 22.886719 27.804688 22.628906 26.863281 22.492188 26.007812 C 22.417969 25.527344 22.421875 25.046875 22.457031 24.5625 C 22.539062 23.503906 22.894531 22.492188 23.46875 21.601562 C 23.953125 20.863281 24.589844 20.210938 25.210938 19.59375 C 26.242188 18.5625 27.351562 17.558594 28.203125 16.375 C 28.988281 15.285156 29.546875 13.964844 29.613281 12.613281 C 29.636719 12.046875 29.574219 11.496094 29.484375 10.949219 Z M 29.484375 10.949219 " fill-opacity="1" fill-rule="nonzero"/><g clip-path="url(#99cb8e695d)"><path fill="#44210d" d="M 35.875 39.414062 L 35.902344 39.414062 C 35.902344 39.457031 35.164062 40.273438 35.066406 40.375 C 33.351562 42.242188 31.175781 43.554688 28.777344 44.351562 C 27.449219 44.792969 26.074219 45.074219 24.671875 45.132812 C 20.613281 45.316406 16.367188 43.714844 13.375 40.980469 L 12.007812 39.441406 C 13.101562 40.320312 14.390625 40.851562 15.71875 41.261719 C 17.5625 41.828125 19.425781 42.097656 21.335938 42.296875 C 22.890625 42.453125 24.453125 42.449219 26.007812 42.34375 C 28.503906 42.167969 30.945312 41.722656 33.28125 40.804688 C 34.195312 40.449219 35.117188 40.039062 35.875 39.414062 Z M 35.875 39.414062 " fill-opacity="1" fill-rule="nonzero"/></g><g clip-path="url(#57e87cba33)"><path fill="#8c5920" d="M 22.214844 5.304688 C 23.195312 5.203125 24.355469 5.496094 25.226562 5.921875 C 26.625 6.613281 27.707031 7.796875 28.210938 9.277344 C 28.5625 10.304688 28.632812 11.390625 28.472656 12.457031 C 28.089844 14.988281 26.242188 16.855469 24.480469 18.558594 C 23.5625 19.441406 22.628906 20.347656 22.0625 21.515625 C 21.566406 22.535156 21.34375 23.695312 21.464844 24.832031 C 21.542969 25.539062 21.753906 26.242188 21.984375 26.914062 L 22.28125 27.699219 L 21.851562 27.117188 C 21.503906 26.617188 21.257812 26.0625 21.007812 25.511719 C 20.777344 25 20.554688 24.492188 20.367188 23.964844 C 20.035156 23.027344 19.808594 22.007812 19.855469 21.007812 C 19.9375 19.320312 20.8125 17.832031 21.886719 16.585938 L 23.089844 15.277344 C 23.660156 14.65625 24.214844 14.007812 24.699219 13.320312 C 25.285156 12.488281 25.753906 11.625 25.933594 10.609375 C 26.136719 9.414062 25.863281 8.210938 25.15625 7.226562 C 24.449219 6.246094 23.414062 5.5 22.214844 5.304688 Z M 22.214844 5.304688 " fill-opacity="1" fill-rule="nonzero"/></g><g clip-path="url(#e0ba8c6620)"><path fill="#44210d" d="M 39.753906 28.996094 C 39.347656 28.15625 38.640625 27.566406 37.761719 27.273438 C 36.992188 27.015625 36.042969 27.015625 35.292969 27.335938 L 34.894531 27.519531 C 34.84375 27.542969 34.789062 27.585938 34.734375 27.582031 C 34.738281 27.410156 34.742188 27.242188 34.71875 27.078125 L 34.714844 27.039062 C 34.605469 26.367188 34.078125 25.847656 33.554688 25.472656 C 33.089844 25.140625 32.542969 24.886719 32.015625 24.671875 C 30.75 24.152344 29.414062 23.847656 28.058594 23.679688 C 27.449219 23.601562 26.832031 23.542969 26.222656 23.527344 C 25.742188 23.984375 25.34375 24.488281 25.003906 25.058594 C 26.089844 25.054688 27.160156 25.152344 28.230469 25.3125 C 29.285156 25.472656 30.324219 25.683594 31.320312 26.070312 C 31.808594 26.265625 32.339844 26.503906 32.714844 26.878906 C 32.859375 27.023438 33.015625 27.207031 33.003906 27.425781 C 32.992188 27.6875 32.769531 27.921875 32.574219 28.078125 C 31.925781 28.605469 30.9375 28.867188 30.136719 29.054688 C 28.238281 29.5 26.273438 29.652344 24.332031 29.65625 C 22.867188 29.660156 21.417969 29.589844 19.964844 29.417969 C 18.851562 29.285156 17.710938 29.066406 16.648438 28.695312 C 16.222656 28.546875 15.808594 28.386719 15.417969 28.167969 C 15.171875 28.027344 14.898438 27.871094 14.730469 27.636719 C 14.679688 27.566406 14.640625 27.476562 14.644531 27.386719 C 14.65625 27.191406 14.839844 27.042969 14.972656 26.921875 C 15.140625 26.773438 15.335938 26.65625 15.53125 26.550781 C 16.886719 25.808594 18.480469 25.5 19.992188 25.242188 L 19.410156 23.785156 C 17.835938 24.082031 16.222656 24.371094 14.804688 25.167969 C 14.308594 25.449219 13.816406 25.785156 13.496094 26.269531 C 13.214844 26.6875 13.191406 27.160156 13.179688 27.640625 C 13.148438 28.835938 13.226562 30.054688 13.417969 31.234375 C 13.542969 31.96875 13.714844 32.695312 13.953125 33.402344 C 14.125 33.925781 14.351562 34.429688 14.574219 34.925781 C 15.824219 37.5625 18.027344 39.617188 20.777344 40.589844 C 23.222656 41.457031 25.964844 41.253906 28.292969 40.144531 C 28.90625 39.851562 29.496094 39.46875 30.023438 39.042969 L 30.800781 38.382812 C 30.917969 38.28125 31.085938 38.070312 31.21875 38.015625 C 31.246094 38 31.335938 38.007812 31.367188 38.003906 L 31.773438 37.972656 C 32.28125 37.921875 32.769531 37.859375 33.261719 37.742188 C 36.136719 37.046875 38.804688 35.128906 39.808594 32.257812 C 40.15625 31.238281 40.238281 29.984375 39.753906 28.996094 Z M 31.71875 30.78125 L 29.984375 33.65625 C 28.917969 35.363281 27.617188 37.019531 25.828125 38.003906 C 23.769531 39.136719 21.382812 39.203125 19.164062 38.5625 L 18.65625 38.40625 C 19.574219 38.3125 20.488281 38.167969 21.355469 37.832031 C 22.003906 37.578125 22.582031 37.203125 23.136719 36.789062 C 23.53125 36.5 23.925781 36.199219 24.285156 35.867188 C 24.859375 35.347656 25.382812 34.773438 25.894531 34.1875 C 26.652344 33.316406 27.417969 32.386719 28.292969 31.632812 C 29.460938 30.621094 30.761719 29.847656 32.140625 29.148438 L 33.289062 28.601562 C 33.332031 28.59375 33.308594 28.597656 33.351562 28.601562 C 32.78125 29.3125 32.214844 30.007812 31.71875 30.78125 Z M 38.160156 32.28125 C 37.414062 33.957031 35.832031 35.28125 34.144531 35.929688 C 33.648438 36.128906 33.113281 36.253906 32.582031 36.347656 C 33.921875 34.289062 34.515625 31.980469 34.757812 29.5625 C 35.289062 29.027344 35.871094 28.644531 36.640625 28.597656 C 36.929688 28.582031 37.191406 28.636719 37.453125 28.742188 C 37.902344 28.929688 38.253906 29.277344 38.429688 29.730469 C 38.742188 30.527344 38.492188 31.535156 38.160156 32.28125 Z M 38.160156 32.28125 " fill-opacity="1" fill-rule="nonzero"/></g><g fill="#3a320c" fill-opacity="1"><g transform="translate(40.76296, 30.719983)"><g><path d="M 12.1875 -3.21875 C 13.144531 -3.21875 14.050781 -3.398438 14.90625 -3.765625 C 15.769531 -4.140625 16.515625 -4.632812 17.140625 -5.25 L 19.59375 -2.765625 C 18.65625 -1.816406 17.550781 -1.066406 16.28125 -0.515625 C 15.007812 0.0234375 13.644531 0.296875 12.1875 0.296875 C 10.75 0.296875 9.390625 0.046875 8.109375 -0.453125 C 6.828125 -0.953125 5.703125 -1.675781 4.734375 -2.625 C 3.773438 -3.570312 3.019531 -4.710938 2.46875 -6.046875 C 1.925781 -7.378906 1.65625 -8.863281 1.65625 -10.5 C 1.65625 -12.625 2.101562 -14.492188 3 -16.109375 C 3.90625 -17.734375 5.148438 -19.003906 6.734375 -19.921875 C 8.328125 -20.847656 10.144531 -21.3125 12.1875 -21.3125 C 13.644531 -21.3125 15.007812 -21.035156 16.28125 -20.484375 C 17.550781 -19.929688 18.65625 -19.175781 19.59375 -18.21875 L 17.140625 -15.765625 C 16.515625 -16.398438 15.769531 -16.894531 14.90625 -17.25 C 14.050781 -17.613281 13.144531 -17.796875 12.1875 -17.796875 C 10.75 -17.796875 9.507812 -17.476562 8.46875 -16.84375 C 7.425781 -16.21875 6.625 -15.359375 6.0625 -14.265625 C 5.5 -13.179688 5.21875 -11.925781 5.21875 -10.5 C 5.21875 -9 5.523438 -7.703125 6.140625 -6.609375 C 6.765625 -5.523438 7.609375 -4.6875 8.671875 -4.09375 C 9.734375 -3.507812 10.90625 -3.21875 12.1875 -3.21875 Z M 12.1875 -3.21875 "/></g></g></g><g fill="#3a320c" fill-opacity="1"><g transform="translate(61.59887, 30.719983)"><g><path d="M 9.515625 -5.703125 C 8.429688 -5.703125 7.421875 -5.90625 6.484375 -6.3125 C 5.546875 -6.726562 4.71875 -7.289062 4 -8 C 3.289062 -8.707031 2.726562 -9.53125 2.3125 -10.46875 C 1.90625 -11.414062 1.703125 -12.425781 1.703125 -13.5 C 1.703125 -14.582031 1.90625 -15.59375 2.3125 -16.53125 C 2.726562 -17.476562 3.289062 -18.304688 4 -19.015625 C 4.71875 -19.722656 5.546875 -20.28125 6.484375 -20.6875 C 7.421875 -21.101562 8.429688 -21.3125 9.515625 -21.3125 C 10.597656 -21.3125 11.609375 -21.101562 12.546875 -20.6875 C 13.484375 -20.28125 14.304688 -19.722656 15.015625 -19.015625 C 15.734375 -18.304688 16.296875 -17.476562 16.703125 -16.53125 C 17.109375 -15.59375 17.3125 -14.582031 17.3125 -13.5 C 17.3125 -12.425781 17.109375 -11.414062 16.703125 -10.46875 C 16.296875 -9.53125 15.734375 -8.707031 15.015625 -8 C 14.304688 -7.289062 13.484375 -6.726562 12.546875 -6.3125 C 11.609375 -5.90625 10.597656 -5.703125 9.515625 -5.703125 Z M 9.515625 -17.828125 C 8.710938 -17.828125 7.984375 -17.628906 7.328125 -17.234375 C 6.679688 -16.847656 6.160156 -16.328125 5.765625 -15.671875 C 5.378906 -15.023438 5.1875 -14.300781 5.1875 -13.5 C 5.1875 -12.707031 5.378906 -11.984375 5.765625 -11.328125 C 6.160156 -10.679688 6.679688 -10.160156 7.328125 -9.765625 C 7.984375 -9.378906 8.710938 -9.1875 9.515625 -9.1875 C 10.316406 -9.1875 11.039062 -9.378906 11.6875 -9.765625 C 12.34375 -10.160156 12.863281 -10.679688 13.25 -11.328125 C 13.644531 -11.984375 13.84375 -12.707031 13.84375 -13.5 C 13.84375 -14.300781 13.644531 -15.023438 13.25 -15.671875 C 12.863281 -16.328125 12.34375 -16.847656 11.6875 -17.234375 C 11.039062 -17.628906 10.316406 -17.828125 9.515625 -17.828125 Z M 16.359375 0 L 2.484375 0 L 2.484375 -3.484375 L 16.359375 -3.484375 Z M 16.359375 0 "/></g></g></g><g fill="#3a320c" fill-opacity="1"><g transform="translate(80.753495, 30.719983)"><g><path d="M 13.390625 0 L 7.921875 -8.765625 L 5.90625 -8.765625 L 5.90625 0 L 2.40625 0 L 2.40625 -12.25 L 5.734375 -12.25 L 2.40625 -17.5 L 2.40625 -21.015625 L 9.390625 -21.015625 C 9.390625 -21.015625 9.5625 -21.003906 9.90625 -20.984375 C 10.25 -20.960938 10.679688 -20.894531 11.203125 -20.78125 C 11.734375 -20.675781 12.300781 -20.5 12.90625 -20.25 C 13.507812 -20 14.070312 -19.644531 14.59375 -19.1875 C 15.125 -18.738281 15.5625 -18.164062 15.90625 -17.46875 C 16.25 -16.769531 16.421875 -15.910156 16.421875 -14.890625 C 16.421875 -13.648438 16.175781 -12.640625 15.6875 -11.859375 C 15.195312 -11.078125 14.59375 -10.472656 13.875 -10.046875 C 13.164062 -9.628906 12.472656 -9.320312 11.796875 -9.125 L 17.5 0 Z M 9.84375 -12.28125 C 10.164062 -12.320312 10.566406 -12.410156 11.046875 -12.546875 C 11.523438 -12.679688 11.953125 -12.9375 12.328125 -13.3125 C 12.710938 -13.6875 12.90625 -14.210938 12.90625 -14.890625 C 12.90625 -15.546875 12.726562 -16.046875 12.375 -16.390625 C 12.03125 -16.742188 11.625 -17 11.15625 -17.15625 C 10.6875 -17.320312 10.273438 -17.421875 9.921875 -17.453125 C 9.566406 -17.484375 9.390625 -17.5 9.390625 -17.5 L 6.578125 -17.5 Z M 9.84375 -12.28125 "/></g></g></g><g fill="#3a320c" fill-opacity="1"><g transform="translate(99.127529, 30.719983)"><g><path d="M 6.96875 -17.796875 L 6.96875 -3.21875 L 9.421875 -3.21875 L 9.421875 0 L 0.984375 0 L 0.984375 -3.21875 L 3.453125 -3.21875 L 3.453125 -17.796875 L 1.109375 -17.796875 L 1.109375 -21.015625 L 9.3125 -21.015625 L 9.3125 -17.796875 Z M 6.96875 -17.796875 "/></g></g></g><g fill="#3a320c" fill-opacity="1"><g transform="translate(109.635552, 30.719983)"><g><path d="M 13.203125 0 L 0.984375 0 L 8.015625 -17.5 L 0.953125 -17.5 L 0.953125 -21.015625 L 13.171875 -21.015625 L 6.1875 -3.515625 L 13.203125 -3.515625 Z M 13.203125 0 "/></g></g></g><g fill="#3a320c" fill-opacity="1"><g transform="translate(123.896443, 30.719983)"><g><path d="M 9.515625 -5.703125 C 8.429688 -5.703125 7.421875 -5.90625 6.484375 -6.3125 C 5.546875 -6.726562 4.71875 -7.289062 4 -8 C 3.289062 -8.707031 2.726562 -9.53125 2.3125 -10.46875 C 1.90625 -11.414062 1.703125 -12.425781 1.703125 -13.5 C 1.703125 -14.582031 1.90625 -15.59375 2.3125 -16.53125 C 2.726562 -17.476562 3.289062 -18.304688 4 -19.015625 C 4.71875 -19.722656 5.546875 -20.28125 6.484375 -20.6875 C 7.421875 -21.101562 8.429688 -21.3125 9.515625 -21.3125 C 10.597656 -21.3125 11.609375 -21.101562 12.546875 -20.6875 C 13.484375 -20.28125 14.304688 -19.722656 15.015625 -19.015625 C 15.734375 -18.304688 16.296875 -17.476562 16.703125 -16.53125 C 17.109375 -15.59375 17.3125 -14.582031 17.3125 -13.5 C 17.3125 -12.425781 17.109375 -11.414062 16.703125 -10.46875 C 16.296875 -9.53125 15.734375 -8.707031 15.015625 -8 C 14.304688 -7.289062 13.484375 -6.726562 12.546875 -6.3125 C 11.609375 -5.90625 10.597656 -5.703125 9.515625 -5.703125 Z M 9.515625 -17.828125 C 8.710938 -17.828125 7.984375 -17.628906 7.328125 -17.234375 C 6.679688 -16.847656 6.160156 -16.328125 5.765625 -15.671875 C 5.378906 -15.023438 5.1875 -14.300781 5.1875 -13.5 C 5.1875 -12.707031 5.378906 -11.984375 5.765625 -11.328125 C 6.160156 -10.679688 6.679688 -10.160156 7.328125 -9.765625 C 7.984375 -9.378906 8.710938 -9.1875 9.515625 -9.1875 C 10.316406 -9.1875 11.039062 -9.378906 11.6875 -9.765625 C 12.34375 -10.160156 12.863281 -10.679688 13.25 -11.328125 C 13.644531 -11.984375 13.84375 -12.707031 13.84375 -13.5 C 13.84375 -14.300781 13.644531 -15.023438 13.25 -15.671875 C 12.863281 -16.328125 12.34375 -16.847656 11.6875 -17.234375 C 11.039062 -17.628906 10.316406 -17.828125 9.515625 -17.828125 Z M 16.359375 0 L 2.484375 0 L 2.484375 -3.484375 L 16.359375 -3.484375 Z M 16.359375 0 "/></g></g></g><g fill="#ad8330" fill-opacity="1"><g transform="translate(45.201291, 45.368223)"><g><path d="M 4.109375 0.109375 C 3.453125 0.109375 2.867188 -0.0351562 2.359375 -0.328125 C 1.859375 -0.628906 1.460938 -1.066406 1.171875 -1.640625 C 0.878906 -2.222656 0.734375 -2.914062 0.734375 -3.71875 C 0.734375 -4.519531 0.878906 -5.207031 1.171875 -5.78125 C 1.460938 -6.351562 1.859375 -6.785156 2.359375 -7.078125 C 2.867188 -7.378906 3.453125 -7.53125 4.109375 -7.53125 C 4.796875 -7.53125 5.367188 -7.398438 5.828125 -7.140625 C 6.296875 -6.878906 6.628906 -6.484375 6.828125 -5.953125 L 6.28125 -5.578125 L 6.140625 -5.578125 C 5.941406 -6.003906 5.679688 -6.304688 5.359375 -6.484375 C 5.035156 -6.660156 4.617188 -6.75 4.109375 -6.75 C 3.640625 -6.75 3.222656 -6.644531 2.859375 -6.4375 C 2.492188 -6.226562 2.203125 -5.894531 1.984375 -5.4375 C 1.773438 -4.988281 1.671875 -4.414062 1.671875 -3.71875 C 1.671875 -3.007812 1.773438 -2.429688 1.984375 -1.984375 C 2.203125 -1.535156 2.492188 -1.207031 2.859375 -1 C 3.222656 -0.789062 3.640625 -0.6875 4.109375 -0.6875 C 4.640625 -0.6875 5.078125 -0.804688 5.421875 -1.046875 C 5.765625 -1.285156 6.019531 -1.675781 6.1875 -2.21875 L 6.3125 -2.21875 L 6.90625 -1.9375 C 6.726562 -1.269531 6.398438 -0.757812 5.921875 -0.40625 C 5.441406 -0.0625 4.835938 0.109375 4.109375 0.109375 Z M 4.109375 0.109375 "/></g></g></g><g fill="#ad8330" fill-opacity="1"><g transform="translate(55.615476, 45.368223)"><g><path d="M 4.078125 0.109375 C 3.429688 0.109375 2.859375 -0.03125 2.359375 -0.3125 C 1.859375 -0.59375 1.460938 -1.015625 1.171875 -1.578125 C 0.878906 -2.148438 0.734375 -2.863281 0.734375 -3.71875 C 0.734375 -4.5625 0.878906 -5.269531 1.171875 -5.84375 C 1.460938 -6.414062 1.859375 -6.835938 2.359375 -7.109375 C 2.859375 -7.390625 3.429688 -7.53125 4.078125 -7.53125 C 4.722656 -7.53125 5.296875 -7.390625 5.796875 -7.109375 C 6.296875 -6.835938 6.6875 -6.414062 6.96875 -5.84375 C 7.257812 -5.269531 7.40625 -4.5625 7.40625 -3.71875 C 7.40625 -2.863281 7.257812 -2.148438 6.96875 -1.578125 C 6.6875 -1.015625 6.296875 -0.59375 5.796875 -0.3125 C 5.296875 -0.03125 4.722656 0.109375 4.078125 0.109375 Z M 4.078125 -0.703125 C 4.847656 -0.703125 5.4375 -0.941406 5.84375 -1.421875 C 6.257812 -1.910156 6.46875 -2.675781 6.46875 -3.71875 C 6.46875 -4.757812 6.257812 -5.519531 5.84375 -6 C 5.4375 -6.488281 4.847656 -6.734375 4.078125 -6.734375 C 2.472656 -6.734375 1.671875 -5.726562 1.671875 -3.71875 C 1.671875 -1.707031 2.472656 -0.703125 4.078125 -0.703125 Z M 4.078125 -0.703125 "/></g></g></g><g fill="#ad8330" fill-opacity="1"><g transform="translate(66.893815, 45.368223)"><g><path d="M 5.484375 -7.421875 L 5.484375 -6.703125 L 2 -6.703125 L 2 -4 L 5.140625 -4 L 5.140625 -3.28125 L 2 -3.28125 L 2 0 L 1.125 0 L 1.125 -7.421875 Z M 5.484375 -7.421875 "/></g></g></g><g fill="#ad8330" fill-opacity="1"><g transform="translate(75.910108, 45.368223)"><g><path d="M 5.484375 -7.421875 L 5.484375 -6.703125 L 2 -6.703125 L 2 -4 L 5.140625 -4 L 5.140625 -3.28125 L 2 -3.28125 L 2 0 L 1.125 0 L 1.125 -7.421875 Z M 5.484375 -7.421875 "/></g></g></g><g fill="#ad8330" fill-opacity="1"><g transform="translate(84.926401, 45.368223)"><g><path d="M 2 -3.5 L 2 -0.71875 L 5.78125 -0.71875 L 5.78125 0 L 1.125 0 L 1.125 -7.421875 L 5.703125 -7.421875 L 5.703125 -6.703125 L 2 -6.703125 L 2 -4.21875 L 5.265625 -4.21875 L 5.265625 -3.5 Z M 2 -3.5 "/></g></g></g><g fill="#ad8330" fill-opacity="1"><g transform="translate(94.329021, 45.368223)"><g><path d="M 2 -3.5 L 2 -0.71875 L 5.78125 -0.71875 L 5.78125 0 L 1.125 0 L 1.125 -7.421875 L 5.703125 -7.421875 L 5.703125 -6.703125 L 2 -6.703125 L 2 -4.21875 L 5.265625 -4.21875 L 5.265625 -3.5 Z M 2 -3.5 "/></g></g></g></svg>